<svg width="72" height="72" viewBox="0 0 24 24" fill="none" xmlns="http://www.w3.org/2000/svg"><rect width="24" height="24" fill="none" rx="0" ry="0"></rect><path fill-rule="evenodd" clip-rule="evenodd" d="M20.0026 9.80127H18.3726C18.0426 9.80127 17.7726 10.0713 17.7726 10.4013C17.7726 10.7313 18.0426 11.0013 18.3726 11.0013H20.0026C20.5526 11.0013 21.0026 11.4513 21.0026 12.0013C21.0026 12.5513 20.5526 13.0013 20.0026 13.0013H13.7926C13.4626 13.0013 13.1926 13.2713 13.1926 13.6013C13.1926 13.9313 13.4626 14.2013 13.7926 14.2013H20.0026C21.2126 14.2013 22.2026 13.2113 22.2026 12.0013C22.2026 10.7913 21.2126 9.80127 20.0026 9.80127Z" fill="#282c34"></path><path fill-rule="evenodd" clip-rule="evenodd" d="M9.32261 14.2012H11.0927C11.4227 14.2012 11.6927 13.9312 11.6927 13.6012C11.6927 13.2712 11.4227 13.0012 11.0927 13.0012H7.92682C7.75547 12.9857 7.57707 13.0424 7.44261 13.1712C7.36404 13.2465 7.31226 13.3379 7.28622 13.4352C7.27092 13.488 7.2627 13.5437 7.2627 13.6012C7.2627 13.7948 7.35558 13.9677 7.49897 14.0776L10.7126 17.2912C11.1026 17.6812 11.1026 18.3112 10.7126 18.7012C10.3326 19.0812 9.67261 19.0812 9.29261 18.7012L3.29261 12.7012C3.25261 12.6612 3.20261 12.6112 3.17261 12.5412C3.17261 12.5312 3.12261 12.4512 3.11261 12.4412L3.07261 12.3412C3.07261 12.3362 3.06261 12.3037 3.05261 12.2712C3.04261 12.2387 3.03261 12.2062 3.03261 12.2012C2.99261 12.0712 2.99261 11.9312 3.03261 11.7812C3.03261 11.7762 3.04261 11.7462 3.05261 11.7162C3.06261 11.6862 3.07261 11.6562 3.07261 11.6512L3.11261 11.5512L3.17261 11.4412C3.19261 11.4079 3.2215 11.3745 3.25038 11.3412C3.26483 11.3245 3.27927 11.3079 3.29261 11.2912L9.29261 5.29122C9.68261 4.90122 10.3226 4.90122 10.7126 5.29122C10.9026 5.48122 11.0026 5.73122 11.0026 6.00122C11.0026 6.27122 10.9026 6.52122 10.7126 6.71122L7.44261 9.97122C7.31376 10.1001 7.25409 10.2693 7.26359 10.4339C7.2807 10.7489 7.54366 11.0013 7.86271 11.0013H15.6727C16.0027 11.0013 16.2727 10.7313 16.2727 10.4013C16.2727 10.0713 16.0027 9.80127 15.6727 9.80127H9.31255L11.5626 7.55122C11.9826 7.13122 12.2026 6.58122 12.2026 5.99122C12.2026 5.40122 11.9726 4.85122 11.5626 4.43122C10.7326 3.60122 9.28261 3.60122 8.45261 4.43122L2.45261 10.4312C2.35261 10.5312 2.26261 10.6412 2.17261 10.7712C2.15407 10.7959 2.13935 10.8245 2.119 10.8639C2.10643 10.8883 2.09171 10.9168 2.07261 10.9512C2.03261 11.0112 2.00261 11.0712 1.97261 11.1512C1.95049 11.2028 1.93924 11.2436 1.91882 11.3176C1.91155 11.3439 1.90311 11.3745 1.89261 11.4112C1.88612 11.4242 1.87119 11.4751 1.85879 11.5174C1.85208 11.5403 1.84612 11.5607 1.84261 11.5712C1.78261 11.8612 1.78261 12.1412 1.84261 12.4312C1.84879 12.4683 1.85879 12.5016 1.87261 12.5475C1.88115 12.5759 1.89115 12.6092 1.90261 12.6512C1.92261 12.7212 1.94261 12.7812 1.97261 12.8412C2.00261 12.9112 2.03261 12.9712 2.09261 13.0812C2.09917 13.1009 2.12724 13.1464 2.1486 13.181C2.15981 13.1992 2.16917 13.2143 2.17261 13.2212C2.25261 13.3412 2.34261 13.4512 2.44261 13.5512L8.44261 19.5512C8.86261 19.9712 9.41261 20.1912 9.99261 20.1912C10.5826 20.1912 11.1326 19.9612 11.5526 19.5512C11.9726 19.1312 12.1926 18.5812 12.1926 17.9912C12.1926 17.4012 11.9626 16.8512 11.5526 16.4312L9.32261 14.2012Z" fill="#22a6b3"></path></svg>